<?xml version="1.0" encoding="UTF-8" standalone="no"?>
<svg
   aria-hidden="true"
   style="overflow:hidden"
   version="1.1"
   id="svg23"
   sodipodi:docname="icons.svg"
   inkscape:version="1.4 (86a8ad7, 2024-10-11)"
   width="32"
   height="32"
   xmlns:inkscape="http://www.inkscape.org/namespaces/inkscape"
   xmlns:sodipodi="http://sodipodi.sourceforge.net/DTD/sodipodi-0.dtd"
   xmlns:xlink="http://www.w3.org/1999/xlink"
   xmlns="http://www.w3.org/2000/svg"
   xmlns:svg="http://www.w3.org/2000/svg">
  <sodipodi:namedview
     id="namedview23"
     pagecolor="#ffffff"
     bordercolor="#000000"
     borderopacity="0.25"
     inkscape:showpageshadow="2"
     inkscape:pageopacity="0.0"
     inkscape:pagecheckerboard="0"
     inkscape:deskcolor="#d1d1d1"
     inkscape:zoom="16"
     inkscape:cx="8.28125"
     inkscape:cy="18.25"
     inkscape:window-width="1920"
     inkscape:window-height="1017"
     inkscape:window-x="-8"
     inkscape:window-y="-8"
     inkscape:window-maximized="1"
     inkscape:current-layer="svg23"
     showguides="true">
    <sodipodi:guide
       position="16,38.136364"
       orientation="-1,0"
       id="guide1"
       inkscape:locked="false"
       inkscape:label=""
       inkscape:color="rgb(0,134,229)" />
    <sodipodi:guide
       position="-7.20779,16"
       orientation="0,1"
       id="guide2"
       inkscape:locked="false"
       inkscape:label=""
       inkscape:color="rgb(0,134,229)" />
  </sodipodi:namedview>
  <defs
     id="defs23">
    <symbol
       id="icon-gmail"
       viewBox="0 0 32 32">
      <path
         d="M 26.667,5.333 H 5.334 C 3.863,5.333 2.667,6.529 2.667,8 v 16 c 0,1.471 1.196,2.667 2.667,2.667 h 21.333 c 1.471,0 2.667,-1.196 2.667,-2.667 V 8 c 0,-1.471 -1.196,-2.667 -2.667,-2.667 z m 0,2.667 V 8.681 L 16,16.978 5.333,8.682 V 7.999 H 26.666 Z M 5.333,24 V 12.059 l 9.848,7.66 C 15.421,19.907 15.71,20 16,20 c 0.29,0 0.579,-0.093 0.819,-0.281 L 26.667,12.059 26.67,24 H 5.334 Z"
         id="path1" />
    </symbol>
    <symbol
       id="icon-itchio"
       viewBox="0 0 32 32">
      <path
         d="M 6.751,5.161 C 5.622,5.832 3.396,8.386 3.376,9.056 v 1.108 c 0,1.409 1.316,2.642 2.512,2.642 1.435,0 2.627,-1.191 2.627,-2.601 0,1.41 1.155,2.601 2.59,2.601 1.435,0 2.549,-1.191 2.549,-2.601 0,1.41 1.227,2.601 2.663,2.601 h 0.026 c 1.436,0 2.663,-1.191 2.663,-2.601 0,1.41 1.118,2.601 2.549,2.601 1.431,0 2.59,-1.191 2.59,-2.601 0,1.41 1.196,2.601 2.626,2.601 1.196,0 2.512,-1.238 2.512,-2.642 V 9.056 c -0.021,-0.671 -2.247,-3.23 -3.375,-3.901 -3.516,-0.12 -5.95,-0.14 -9.58,-0.14 -3.63,0 -8.576,0.057 -9.575,0.146 z m 6.881,6.99 C 12.488,14.148 9.58,14.164 8.436,12.167 7.75,13.368 6.189,13.837 5.523,13.608 5.32,15.699 4.81,25.94 6.444,27.609 c 4.161,0.973 15.712,0.942 19.754,0 1.649,-1.68 1.108,-12.066 0.926,-14.001 -0.671,0.229 -2.231,-0.239 -2.913,-1.441 -1.144,2.002 -4.052,1.982 -5.196,-0.01 -0.369,0.65 -1.202,1.503 -2.694,1.503 -1.107,0.037 -2.144,-0.542 -2.694,-1.503 l 0.005,-0.005 z m -2.164,2.799 c 0.858,0 1.618,0 2.559,1.03 1.525,-0.155 3.062,-0.155 4.587,0 0.947,-1.03 1.711,-1.03 2.564,-1.03 2.72,0 3.391,4.031 4.364,7.515 0.9,3.235 -0.286,3.313 -1.768,3.313 -2.195,-0.083 -3.407,-1.675 -3.407,-3.266 -2.044,0.333 -5.3,0.458 -8.093,0 0,1.592 -1.212,3.183 -3.407,3.266 C 7.39,25.773 6.204,25.695 7.104,22.465 8.077,18.98 8.747,14.95 11.468,14.95 Z m 4.858,2.486 c 0,0 -2.309,2.122 -2.725,2.871 l 1.508,-0.062 v 1.316 c 0,0.083 1.108,0.01 1.212,0.01 0.608,0.026 1.212,0.052 1.212,-0.01 v -1.316 l 1.508,0.062 c -0.416,-0.754 -2.725,-2.871 -2.725,-2.871 z"
         id="path3" />
    </symbol>
    <symbol
       id="icon-linkedin"
       viewBox="0 0 32 32">
      <path
         d="M 24.453,24.453 H 20.88 V 18.88 q 0,-0.907 -0.053,-1.387 -0.133,-0.747 -0.507,-1.147 -0.427,-0.507 -1.28,-0.507 -1.253,0 -1.76,0.907 -0.373,0.693 -0.373,2.027 v 5.68 H 13.36 V 12.986 h 3.413 v 1.573 H 16.8 q 0.427,-0.773 1.227,-1.253 0.96,-0.587 2.16,-0.587 1.707,0 2.693,0.72 0.88,0.64 1.253,1.947 0.32,1.067 0.32,2.773 v 6.293 z M 9.333,11.44 q -0.853,0 -1.453,-0.613 -0.6,-0.613 -0.6,-1.467 0,-0.854 0.6,-1.453 0.6,-0.599 1.453,-0.6 0.853,-0.001 1.467,0.6 0.614,0.601 0.613,1.453 -10e-4,0.852 -0.613,1.467 -0.612,0.615 -1.467,0.613 z M 11.12,24.453 H 7.547 V 12.986 H 11.12 Z M 26.213,4 H 5.76 Q 5.04,4 4.52,4.507 4,5.014 4,5.734 v 20.533 q 0,0.72 0.52,1.227 0.52,0.507 1.24,0.507 h 20.453 q 0.747,0 1.267,-0.507 Q 28,26.987 28,26.267 V 5.734 Q 28,5.014 27.48,4.507 26.96,4 26.213,4 Z"
         id="path4" />
    </symbol>
    <symbol
       id="icon-github"
       viewBox="0 0 32 32">
      <path
         d="m 16,2.987 q -2.72,0 -5.2,1.067 -2.373,1.013 -4.227,2.853 -1.854,1.84 -2.867,4.24 -1.04,2.48 -1.04,5.173 0,2.907 1.173,5.52 1.147,2.533 3.227,4.4 2.08,1.867 4.72,2.747 0.453,0.08 0.68,-0.133 0.227,-0.213 0.227,-0.507 v -2.48 Q 10.48,26.267 9.28,25.6 8.507,25.147 8.187,24.293 8.054,23.893 7.68,23.333 7.2,22.613 6.827,22.4 6.347,22.16 6.24,21.893 q -0.16,-0.347 0.547,-0.36 0.707,-0.013 1.347,0.52 0.427,0.347 0.72,0.853 0.8,1.307 2.107,1.413 0.88,0.08 1.787,-0.32 0.16,-1.2 0.853,-1.787 -1.733,-0.187 -2.88,-0.72 -1.493,-0.667 -2.267,-1.973 -0.933,-1.493 -0.933,-3.893 0,-2.08 1.387,-3.573 Q 8.695,11.52 8.641,10.853 8.561,9.68 9.041,8.506 L 9.254,8.479 q 0.293,0 0.667,0.08 0.507,0.107 1.12,0.373 0.773,0.347 1.653,0.933 1.6,-0.427 3.333,-0.427 1.733,0 3.333,0.427 1.6,-1.067 2.8,-1.333 0.587,-0.107 0.88,-0.027 v 0 q 0.453,1.173 0.373,2.347 -0.027,0.667 -0.24,1.2 1.36,1.493 1.36,3.573 0,2.4 -0.907,3.92 -0.8,1.28 -2.293,1.947 -1.147,0.533 -2.88,0.72 0.4,0.347 0.64,0.907 0.267,0.667 0.267,1.547 l -0.027,3.68 q 0,0.32 0.227,0.52 0.227,0.2 0.68,0.12 2.693,-0.907 4.76,-2.8 2.067,-1.893 3.2,-4.453 1.133,-2.56 1.133,-5.413 0,-2.693 -1.04,-5.173 -1.013,-2.4 -2.867,-4.24 -1.854,-1.84 -4.227,-2.853 -2.48,-1.067 -5.2,-1.067 z"
         id="path5" />
    </symbol>
    <symbol
       id="icon-cpp"
       viewBox="0 0 32 32">
      <path
         d="M 28.079,8 V 8 8 C 27.856,7.61 27.549,7.275 27.206,7.08 L 15.452,0.297 c -0.678,-0.39 -1.784,-0.39 -2.462,0 L 1.236,7.08 C 0.558,7.47 0.01,8.427 0.01,9.208 v 13.575 c 0,0.39 0.139,0.827 0.362,1.217 v 0 0 c 0.223,0.39 0.53,0.725 0.873,0.92 l 11.754,6.783 c 0.678,0.39 1.784,0.39 2.462,0 L 27.215,24.92 c 0.334,-0.195 0.65,-0.53 0.873,-0.92 0.223,-0.39 0.362,-0.818 0.362,-1.217 V 9.208 C 28.441,8.818 28.301,8.381 28.078,8 Z M 14.216,25.477 c -5.222,0 -9.477,-4.256 -9.477,-9.477 0,-5.221 4.256,-9.477 9.477,-9.477 3.373,0 6.513,1.812 8.204,4.739 l -4.098,2.369 c -0.846,-1.459 -2.416,-2.369 -4.107,-2.369 -2.611,0 -4.739,2.128 -4.739,4.739 0,2.611 2.128,4.739 4.739,4.739 1.691,0 3.261,-0.911 4.107,-2.369 l 4.098,2.369 c -1.691,2.918 -4.832,4.739 -8.204,4.739 z m 9.477,-8.957 h -1.05 v 1.05 h -1.05 v -1.05 h -1.059 v -1.05 h 1.05 v -1.05 h 1.05 v 1.05 h 1.059 z m 3.949,0 h -1.05 v 1.05 h -1.05 v -1.05 h -1.05 v -1.05 h 1.05 v -1.05 h 1.05 v 1.05 h 1.05 z"
         id="path7" />
    </symbol>
    <symbol
       id="icon-git"
       viewBox="0 0 32 32">
      <path
         d="M 31.374,14.609 17.391,0.626 c -0.8,-0.8 -2.122,-0.8 -2.922,0 0,0 0,0 0,0 L 11.582,3.513 15.269,7.2 c 0.87,-0.313 1.843,-0.07 2.504,0.591 0.661,0.661 0.904,1.635 0.591,2.539 l 3.548,3.548 c 0.87,-0.313 1.878,-0.07 2.539,0.591 0.939,0.939 0.939,2.504 0,3.478 0,0 0,0 0,0 -0.974,0.939 -2.504,0.939 -3.478,0 -0.696,-0.696 -0.904,-1.739 -0.522,-2.678 l -3.304,-3.304 v 8.696 c 1.217,0.591 1.704,2.052 1.113,3.27 -0.104,0.243 -0.278,0.452 -0.452,0.661 -0.939,0.939 -2.504,0.939 -3.478,0 0,0 0,0 0,0 -0.939,-0.939 -0.974,-2.504 0,-3.478 0,0 0,0 0,0 0.243,-0.243 0.487,-0.417 0.8,-0.522 v -8.8 c -1.252,-0.522 -1.843,-1.948 -1.322,-3.2 0,0 0,0 0,0 L 10.156,4.975 0.591,14.54 c -0.8,0.8 -0.8,2.122 0,2.922 L 14.539,31.41 c 0.8,0.8 2.122,0.8 2.922,0 L 31.339,17.532 c 0.835,-0.835 0.835,-2.122 0.035,-2.922 z"
         id="path8" />
    </symbol>
    <symbol
       id="icon-csharp"
       viewBox="0 0 32 32">
      <path
         d="m 20.951,15.291 h 0.887 l -0.115,1.084 h -0.884 z m 7.485,-6.078 v 13.574 c -0.03,0.857 -0.466,1.624 -1.231,2.133 l -11.756,6.787 c -0.677,0.391 -1.785,0.391 -2.463,0 L 1.23,24.92 C 0.517,24.452 0.051,23.698 -0.001,22.787 V 9.213 C -0.001,8.431 0.553,7.471 1.23,7.08 L 12.986,0.293 c 0.677,-0.391 1.785,-0.391 2.463,0 L 27.205,7.08 c 0.711,0.48 1.204,1.31 1.231,2.133 z M 22.427,20.742 18.325,18.368 C 15.589,22.748 9.545,20.608 9.479,16 9.7,11 15.848,9.536 18.325,13.631 l 4.102,-2.374 C 17.081,2.657 4.684,6.744 4.74,15.999 4.978,25.977 17.716,28.92 22.428,20.741 Z m 0.979,-6.205 h -0.703 l 0.127,-1.225 h -0.781 l -0.13,1.224 H 21.03 l 0.127,-1.224 h -0.781 l -0.13,1.224 h -0.745 v 0.755 h 0.665 l -0.115,1.084 h -0.768 v 0.755 h 0.688 l -0.142,1.339 h 0.796 l 0.139,-1.339 h 0.881 l -0.142,1.339 h 0.796 l 0.139,-1.339 h 0.753 v -0.755 h -0.675 l 0.112,-1.084 h 0.781 v -0.755 z"
         id="path9" />
    </symbol>
    <symbol
       id="icon-unreal"
       viewBox="0 0 32 32">
      <path
         d="M 16,3 C 8.832,3 3,8.832 3,16 3,23.168 8.832,29 16,29 23.168,29 29,23.168 29,16 29,8.832 23.168,3 16,3 Z m 0,2 C 22.086,5 27,9.914 27,16 27,22.086 22.086,27 16,27 9.914,27 5,22.086 5,16 5,9.914 9.914,5 16,5 Z m 0,3 c -4.758,0.84 -9,5.227 -9,10 2.328,-4.109 3.883,-4.406 4.313,-4.406 0.43,0 0.656,0.223 0.656,0.719 v 6.125 c 0,0.762 -1.48,0.637 -1.969,0.563 1.809,2.691 6,3 6,3 l 2,-2 2,1 c 3.156,-1.445 5,-4.539 5,-5 -1.371,1.512 -2.734,2 -3,2 -0.266,0 -1,-0.137 -1,-0.5 v -7.25 c 0,-0.629 1.453,-2.551 2,-3.25 -3.609,0.945 -4.656,2.594 -4.656,2.594 0,0 -0.273,-0.594 -1.344,-0.594 0.398,0.344 1,1.273 1,2 v 6.125 c 0,0 -1.305,0.875 -2,0.875 -0.695,0 -1.031,-0.281 -1.031,-0.813 C 14.969,18.657 15,12 15,12 c 0,0 -1,0.367 -1,-1.688 0,-1.027 2,-2.313 2,-2.313 z"
         id="path10" />
    </symbol>
    <symbol
       id="icon-agile"
       viewBox="0 0 32 32">
      <path
         d="M 15.675,3.631 C 15.587,3.712 14.95,4.462 14.256,5.3 12.962,6.863 12.875,7 13.081,7.269 c 0.037,0.05 0.675,0.581 1.412,1.163 l 1.331,1.069 h 0.325 c 0.175,0 0.575,0.044 0.881,0.094 1.425,0.231 2.663,0.894 3.688,1.975 0.769,0.806 1.281,1.738 1.575,2.838 0.144,0.55 0.163,0.744 0.163,1.594 0,0.844 -0.019,1.05 -0.163,1.575 a 6.425,6.425 0 0 1 -1.575,2.856 c -1.019,1.075 -2.225,1.725 -3.681,1.975 -0.438,0.075 -1.106,0.094 -3.156,0.094 h -2.6 L 9.894,23.896 C 8.613,25.171 8.5,25.302 8.5,25.502 c 0,0.2 0.113,0.331 1.394,1.606 l 1.387,1.394 h 1.137 c 1.213,0 1.394,-0.038 1.512,-0.294 0.106,-0.231 0.081,-0.387 -0.088,-0.55 -0.15,-0.15 -0.175,-0.156 -1.137,-0.156 h -0.988 l -2,-2 0.994,-0.994 0.994,-1 2.694,-0.025 c 2.45,-0.025 2.744,-0.038 3.225,-0.156 1.45,-0.35 2.625,-1.006 3.663,-2.038 2.219,-2.225 2.819,-5.45 1.556,-8.375 -0.656,-1.5 -2.087,-2.963 -3.625,-3.688 -0.8,-0.381 -2.15,-0.725 -2.863,-0.725 -0.125,0 -0.425,-0.2 -1.125,-0.756 C 14.705,7.326 14.274,6.964 14.261,6.932 14.249,6.907 14.68,6.351 15.224,5.707 16.355,4.351 16.187,4.438 17.386,4.595 a 11.584,11.584 0 0 1 5.706,2.369 c 0.619,0.487 1.462,1.331 1.913,1.912 0.438,0.569 0.744,0.662 1.044,0.331 C 26.324,8.901 26.118,8.526 25.037,7.388 22.799,5.05 19.843,3.694 16.593,3.519 15.862,3.481 15.837,3.488 15.674,3.631 Z M 12.5,4 C 11.062,4.412 9.481,5.231 8.219,6.213 7.675,6.638 6.675,7.644 6.219,8.219 3.413,11.8 2.725,16.532 4.413,20.688 4.732,21.463 5.025,21.669 5.4,21.369 5.613,21.2 5.613,20.931 5.406,20.469 5.137,19.863 4.812,18.769 4.675,18.013 4.481,16.944 4.481,15.019 4.675,13.982 5.488,9.657 8.494,6.288 12.687,5.001 13.05,4.889 13.393,4.757 13.456,4.701 13.612,4.563 13.6,4.164 13.425,4.001 13.256,3.845 13.038,3.845 12.5,4.001 Z m 0.131,5.313 c -3.744,1.875 -5.206,6.406 -3.269,10.15 0.512,1 1.394,2.038 1.725,2.038 0.231,0 0.494,-0.256 0.494,-0.481 0,-0.144 -0.094,-0.306 -0.394,-0.65 C 10.412,19.47 9.937,18.582 9.675,17.526 9.556,17.064 9.538,16.807 9.538,15.97 9.544,15.101 9.563,14.895 9.7,14.376 10.212,12.482 11.381,11.063 13.194,10.145 13.85,9.814 13.988,9.645 13.875,9.339 13.713,8.914 13.45,8.908 12.631,9.314 Z m 13.75,1.037 c -0.169,0.219 -0.163,0.4 0.019,0.762 0.238,0.475 0.575,1.431 0.744,2.106 0.756,3.006 0.256,6.2 -1.381,8.831 -0.462,0.744 -0.825,1.2 -1.544,1.944 -2.113,2.181 -4.8,3.369 -7.938,3.488 -0.925,0.038 -1.006,0.05 -1.137,0.181 a 0.466,0.466 0 0 0 0.012,0.681 c 0.137,0.144 0.194,0.156 0.769,0.156 2.944,0 5.838,-1.05 8.106,-2.95 4.231,-3.538 5.637,-9.481 3.425,-14.531 C 27.3,10.662 27.112,10.33 27.043,10.28 26.824,10.13 26.531,10.161 26.38,10.349 Z m -11.318,0.738 c -1.169,0.25 -2.125,0.813 -2.875,1.694 -1.412,1.669 -1.575,4.1 -0.381,5.919 1.512,2.319 4.612,2.988 6.894,1.494 2.675,-1.75 3.075,-5.475 0.825,-7.719 -0.644,-0.65 -1.387,-1.069 -2.337,-1.331 -0.488,-0.131 -1.625,-0.162 -2.125,-0.056 z m 1.781,1.006 c 1.344,0.281 2.556,1.394 2.988,2.75 0.194,0.619 0.194,1.694 0,2.313 a 4.194,4.194 0 0 1 -2.675,2.675 c -0.619,0.194 -1.694,0.194 -2.313,0 -1.231,-0.387 -2.281,-1.438 -2.662,-2.644 A 5.051,5.051 0 0 1 12.02,16.219 c -0.15,-2.619 2.238,-4.662 4.825,-4.125 z m 0.418,2.644 c -0.438,0.412 -1.113,1.044 -1.506,1.406 l -0.713,0.663 -0.556,-0.494 c -0.619,-0.563 -0.813,-0.619 -1.081,-0.344 -0.313,0.306 -0.213,0.506 0.662,1.313 0.744,0.688 0.85,0.75 1.075,0.694 0.131,-0.031 3.038,-2.662 3.469,-3.137 0.288,-0.319 0.063,-0.838 -0.363,-0.838 -0.163,0 -0.331,0.125 -0.988,0.738 z M 1.156,22.656 1,22.806 v 5.387 l 0.156,0.15 0.15,0.156 h 7.519 l 0.181,-0.181 c 0.231,-0.231 0.231,-0.406 0,-0.637 L 8.825,27.5 H 2 v -4 h 6.825 l 0.181,-0.181 c 0.231,-0.231 0.231,-0.406 0,-0.637 L 8.825,22.501 H 1.306 l -0.15,0.156 z m 26.588,0.088 c -0.337,0.337 -0.3,0.406 0.994,1.706 l 1.044,1.05 -2,2 h -2.375 c -1.994,0 -2.4,0.012 -2.512,0.094 -0.281,0.2 -0.225,0.706 0.1,0.837 0.119,0.05 0.938,0.069 2.712,0.056 l 2.544,-0.019 1.375,-1.375 c 1.256,-1.262 1.375,-1.4 1.375,-1.594 0,-0.2 -0.119,-0.331 -1.363,-1.575 -1.5,-1.506 -1.544,-1.531 -1.894,-1.181 z"
         id="path11" />
    </symbol>
    <symbol
       id="icon-graphics"
       viewBox="0 0 32 32">
      <path
         d="m 28.344,6.144 h -0.206 c -7.569,0.031 -15.131,0 -22.7,0.031 C 4.538,6.181 4.151,6.05 4.163,4.994 4.182,2.331 2.938,2.525 1.394,2.544 1.013,2.55 0.669,2.682 0.638,3.107 0.607,3.538 0.919,3.745 1.307,3.738 2.901,3.713 3.007,3.619 3.013,5.901 3.019,12.57 3,19.232 3,25.901 v 0.9 C 3,27.27 3.019,27.789 3.644,27.763 4.15,27.738 4.2,27.282 4.2,26.857 4.194,26.307 4.213,25.757 4.194,25.201 4.175,24.62 4.125,24.138 5.007,24.176 c 0.731,0.031 1.112,0.05 1.125,0.9 0.019,1.712 0.713,1.531 1.731,1.55 1.018,0.019 1.606,0.087 1.613,-1.425 0,-0.438 -0.088,-1.056 0.794,-1 0.9,0.056 0.731,0.719 0.713,1.1 -0.05,0.962 0.55,1.325 1.094,1.331 2.606,0.038 5.213,-0.038 7.819,-0.019 0.65,0.006 0.65,0.012 0.819,-0.663 0.169,-0.675 -0.387,-1.744 0.988,-1.694 0.856,0.031 0.488,1.069 0.619,1.644 0.156,0.688 0.506,0.731 1.031,0.712 0.481,-0.019 1.1,0.15 1.25,-0.512 0.113,-0.506 -0.313,-0.663 -0.756,-0.694 -0.587,-0.038 -0.356,-0.494 -0.381,-0.794 -0.038,-0.469 0.337,-0.4 0.619,-0.406 1.35,-0.006 2.706,-0.063 4.056,0.012 h 0.031 a 2.394,2.394 0 0 0 2.5,-2.394 V 8.537 A 2.397,2.397 0 0 0 28.347,6.143 Z M 8.425,24.794 c -0.019,0.4 -0.081,0.675 -0.556,0.613 -0.375,0.031 -0.694,0.006 -0.656,-0.506 0.025,-0.331 -0.063,-0.7 0.481,-0.694 0.419,0 0.763,-0.006 0.731,0.587 z m 10.694,0.619 A 457.838,457.838 0 0 0 12.7,25.419 c -0.5,0.006 -0.706,-0.131 -0.688,-0.669 0.012,-0.506 0.281,-0.544 0.662,-0.544 1.094,0.006 2.188,0 3.281,0 1.044,0 2.088,0.006 3.131,0 0.413,0 0.762,-0.031 0.769,0.587 0.006,0.594 -0.3,0.619 -0.738,0.619 z M 29.488,8.869 A 457.167,457.167 0 0 0 29.482,21.644 C 29.494,22.7 29.163,23.038 28.107,23.019 24.351,22.969 20.588,23 16.832,23 13.026,23 9.213,22.962 5.407,23.025 4.426,23.037 4.163,22.781 4.176,21.8 a 521.03,521.03 0 0 0 0,-13.231 C 4.163,7.588 4.42,7.332 5.401,7.338 c 7.519,0.044 15.031,0.05 22.55,0 1.2,-0.006 1.563,0.325 1.538,1.531 z M 10.369,9.775 c 1.1,0 2.2,-0.006 3.3,0 0.387,0 0.713,0.162 0.713,0.588 0,0.431 -0.325,0.594 -0.713,0.594 -2.3,0.006 -4.606,0.006 -6.906,0 -0.388,0 -0.713,-0.162 -0.713,-0.594 0,-0.432 0.325,-0.588 0.713,-0.594 1.2,0 2.4,0.006 3.606,0.006 z m -0.238,4.2 h -3.3 C 6.443,13.975 6.094,13.85 6.056,13.444 6.012,12.925 6.4,12.782 6.85,12.782 h 6.756 c 0.387,0 0.738,0.125 0.775,0.531 0.044,0.519 -0.344,0.662 -0.794,0.662 z M 10.2,17.587 H 6.9 c -0.431,0 -0.856,-0.094 -0.838,-0.619 0.019,-0.519 0.45,-0.587 0.875,-0.581 h 6.606 c 0.431,0 0.856,0.094 0.838,0.613 -0.019,0.512 -0.45,0.587 -0.875,0.587 z m -0.044,3.007 h -3.3 c -0.444,0 -0.838,-0.137 -0.794,-0.663 0.031,-0.413 0.381,-0.538 0.769,-0.538 h 6.756 c 0.444,0 0.838,0.137 0.794,0.656 -0.031,0.406 -0.381,0.538 -0.769,0.538 -1.156,0 -2.306,0.006 -3.456,0.006 z m 11.6,-10.975 c -3.3,-0.012 -6.006,2.669 -6.037,5.981 -0.031,3.275 2.694,6.025 5.975,6.044 3.288,0.019 6.006,-2.681 6.044,-5.981 0.031,-3.275 -2.7,-6.031 -5.981,-6.044 z M 19.525,11.4 c 0.137,-0.081 0.319,0.006 0.35,0.162 0.194,1.019 0.7,3.137 0.031,3.262 -0.825,0.156 -1.637,-0.375 -2.269,-0.931 -0.506,-0.45 0.962,-1.963 1.887,-2.494 z m -2.15,6.269 c -0.313,-0.8 -0.569,-1.6 -0.394,-2.544 0.925,0.338 1.844,0.65 2.738,1.006 0.531,0.212 0.706,0.581 0.206,1.012 -0.375,0.325 -0.8,0.6 -1.194,0.9 -0.619,0.475 -1.056,0.4 -1.356,-0.375 z m 4.7,2.668 c -0.475,0.369 -1.25,0.05 -1.875,-0.169 -0.469,-0.169 -0.95,-0.313 -1.25,-0.756 0.625,-0.5 1.294,-0.95 1.856,-1.506 0.837,-0.831 1.294,-0.606 1.431,0.45 0.094,0.675 0.413,1.538 -0.163,1.981 z M 21.256,13.113 C 21.112,12.388 20.775,11.275 21.331,11 c 0.988,-0.5 2.012,-0.025 2.962,0.613 a 0.219,0.219 0 0 1 0.012,0.356 c -0.675,0.55 -1.212,1.094 -1.831,1.531 -0.75,0.531 -1.063,0.419 -1.219,-0.387 z m 4.669,4.556 c -0.144,1.156 -1.144,1.881 -2.281,2.3 -0.144,-0.894 -0.256,-1.725 -0.425,-2.538 -0.181,-0.894 0.075,-1.281 0.988,-0.913 0.669,0.275 1.8,0.475 1.719,1.15 z m -2.144,-2.513 c -0.625,-0.244 -0.769,-0.65 -0.2,-1.106 0.606,-0.488 1.369,-1.431 1.975,-1.037 0.988,0.644 1.063,1.925 0.919,3.125 C 25.55,15.8 24.656,15.494 23.781,15.157 Z"
         id="path12" />
    </symbol>
    <symbol
       id="icon-design"
       viewBox="0 0 32 32">
      <path
         d="m 22.2,22.7 c 1.2,0.1 1.4,-1.6 0.4,-2 -1.5,-0.5 -2,2 -0.4,2 z m 2,-2 c 1.2,0.1 1.4,-1.6 0.4,-2 -1.6,-0.5 -2,2 -0.4,2 z m 2,2 c 1.2,0.1 1.4,-1.6 0.4,-2 -1.6,-0.5 -2,2 -0.4,2 z m -1.6,0 c -1.5,-0.5 -2,2 -0.4,2 1.2,0.1 1.4,-1.6 0.4,-2 z m -15.4,-2 c 0,-0.6 0.2,-1.8 -0.6,-2 -1.4,-0.3 -1.5,1 -1.4,2 -0.9,-0.1 -2,-0.2 -2,1 0,1.2 1.2,1.1 2,1 -0.1,0.9 -0.2,2 1,2 1.2,0 1.1,-1.2 1,-2 0.9,0.1 2,0.2 2,-1 0,-1.2 -1.2,-1.1 -2,-1 z m 16,10.7 c -2.7,0 -3.6,-1.8 -4.3,-3.1 -0.7,-1.3 -1.1,-1.9 -2.2,-1.9 -5.4,-0.2 -5.6,0.1 -5.9,0.9 -0.595,1.522 -1.64,2.76 -2.969,3.582 L 9.8,30.9 9.6,31 C 6.3,32 3.6,30.6 2.4,27.3 0.8,23 2.1,16.6 6,15 h 0.3 c 0.777,-0.198 1.668,-0.312 2.586,-0.312 0.181,0 0.36,0.004 0.539,0.013 L 9.4,14.7 h 0.7 c 1,0 1.08,0.26 2.28,1.06 0.184,0.193 0.395,0.359 0.627,0.493 l 0.014,0.007 c 0.414,0.277 0.924,0.442 1.472,0.442 0.038,0 0.076,-0.001 0.114,-0.002 h -0.005 0.3 c 3.2,0.3 4.43,-0.29 4.43,-0.29 0.958,-0.943 2.23,-1.569 3.645,-1.708 L 23.002,14.7 h 0.9 c 0.4,0 0.7,0.1 1.1,0.1 1.278,0.091 2.422,0.607 3.305,1.404 l -0.005,-0.004 1.3,1.3 c 0.989,1.652 1.574,3.645 1.574,5.774 0,1.752 -0.396,3.412 -1.103,4.894 l 0.029,-0.069 c -0.865,1.874 -2.684,3.173 -4.817,3.279 l -0.013,0.001 c 0.18,-0.01 -0.07,0.02 -0.07,0.02 z M 18.55,25 c 1.623,0.097 2.98,1.135 3.541,2.572 L 22.1,27.6 c 0.7,1.3 1.3,2.4 3.1,2.3 1.607,-0.025 2.993,-0.942 3.689,-2.277 L 28.9,27.6 c 1.4,-2.7 0.9,-6.8 -0.4,-9 -0.2,-0.2 -0.6,-0.5 -1.2,-1.1 -0.641,-0.57 -1.472,-0.939 -2.388,-0.999 L 24.9,16.5 c -0.054,0.003 -0.118,0.004 -0.182,0.004 -0.325,0 -0.642,-0.038 -0.946,-0.11 L 23.8,16.4 H 23 c -1.023,0.082 -1.948,0.444 -2.714,1.01 L 20.3,17.4 c -0.9,1.2 -3.3,1.1 -5.5,0.9 H 14.4 C 13.558,18.133 12.836,17.705 12.303,17.104 L 12.3,17.1 12,16.8 c -0.454,-0.384 -1.047,-0.618 -1.694,-0.618 -0.108,0 -0.214,0.006 -0.319,0.019 L 10,16.2 H 9.2 C 9.065,16.192 8.907,16.188 8.747,16.188 c -0.8,0 -1.574,0.114 -2.306,0.327 L 6.499,16.5 h -0.1 c -3,1.3 -4,6.8 -2.8,10.3 0.6,1.8 2.1,3.7 5.2,2.8 1.062,-0.67 1.889,-1.626 2.385,-2.76 l 0.015,-0.04 c 0.7,-1.7 1.15,-2.11 7.05,-1.81 z M 4.3,16.14 C 4.919,15.516 5.665,15.02 6.497,14.695 L 6.54,14.68 H 6.6 v -0.29 c 0,-0.018 0.001,-0.039 0.001,-0.06 0,-1.005 -0.431,-1.909 -1.118,-2.538 L 5.48,11.79 4.93,11.35 C 3.745,10.494 2.912,9.212 2.655,7.734 L 2.65,7.7 c 0,-0.23 0,-0.87 0,-1.17 V 6.38 c 0,-0.002 0,-0.005 0,-0.008 0,-1.401 0.565,-2.671 1.48,-3.593 v 0 C 4.681,2.197 5.408,1.787 6.226,1.633 L 6.25,1.629 c 0.005,0 0.01,0 0.015,0 0.15,0 0.293,0.033 0.421,0.093 L 6.68,1.719 c 0.131,0.13 0.212,0.311 0.212,0.511 0,0.021 -0.001,0.042 -0.003,0.062 V 2.289 c 0,0.14 0,3.8 0,3.8 l 1.81,0.5 c 0.174,0.048 0.374,0.075 0.58,0.075 0.206,0 0.406,-0.027 0.596,-0.079 l -0.016,0.004 1.84,-0.5 v -3.59 c 0,-0.54 0,-0.54 0.17,-0.72 0.098,-0.101 0.235,-0.164 0.387,-0.164 0.022,0 0.044,0.001 0.065,0.004 h -0.003 c 0.914,0.172 1.7,0.634 2.276,1.286 l 0.004,0.004 c 0.553,0.607 0.974,1.345 1.21,2.161 l 0.01,0.039 v 0.52 c 0.05,0.59 0.1,1.22 0.1,1.29 0,0.014 0,0.031 0,0.048 0,1.452 -0.593,2.766 -1.55,3.712 v 0 c -0.322,0.323 -0.664,0.625 -1.026,0.902 l -0.024,0.018 c -0.71,0.501 -1.2,1.274 -1.318,2.164 l -0.002,0.016 c 0,0.11 0,0.36 0,0.45 -0.016,0.078 -0.025,0.167 -0.025,0.259 0,0.276 0.084,0.533 0.228,0.746 l -0.003,-0.005 c 0.174,0.201 0.353,0.384 0.544,0.555 l 0.006,0.005 0.17,0.16 c 0.354,0.418 0.88,0.681 1.466,0.681 0.019,0 0.038,0 0.056,-10e-4 h -0.003 3.92 c 0.728,-0.092 1.356,-0.461 1.786,-0.995 l 0.004,-0.005 c 0.445,-0.561 0.714,-1.279 0.714,-2.06 0,-0.191 -0.016,-0.377 -0.047,-0.559 l 0.003,0.02 c 0,0 -0.1,-6.52 -0.1,-6.58 -10e-4,-0.02 -0.002,-0.042 -0.002,-0.066 0,-0.323 0.118,-0.619 0.313,-0.846 L 21.027,5.54 23.817,1.83 C 23.909,1.703 24.052,1.617 24.215,1.6 h 0.002 0.29 c 0.2,0.049 0.365,0.172 0.468,0.337 l 0.002,0.003 c 0,0 2.33,3.1 2.64,3.53 0.158,0.218 0.276,0.477 0.337,0.756 l 0.003,0.014 c 0,0 0,8.68 0,8.81 0,0.77 1,1.51 1.49,2.08 -0.247,0.317 -0.63,0.519 -1.059,0.519 -0.397,0 -0.754,-0.173 -1,-0.448 L 27.387,17.2 c -0.807,-0.705 -1.841,-1.169 -2.98,-1.269 l -0.02,-10e-4 c -0.134,-0.011 -0.29,-0.018 -0.447,-0.018 -1.287,0 -2.472,0.436 -3.416,1.167 l 0.013,-0.009 c -2.3,2.09 -5.58,-0.3 -8.58,-0.83 -1.142,-0.112 -2.182,-0.313 -3.185,-0.601 l 0.125,0.031 c -1.14,-0.39 -2.42,0.8 -3.59,0.92 -0.98,0.12 -1.03,-0.44 -1.01,-0.45 z m 20.56,-7.3 v 5.77 l 1.79,0.36 V 8.42 Z m -3.11,6.08 1.91,-0.26 V 8.84 L 21.86,8.27 Z M 5,3.54 c -0.94,1 -1.12,3.35 -1.12,3.35 0,0.007 0,0.016 0,0.025 0,1.138 0.475,2.165 1.239,2.894 L 5.121,9.81 c 0.348,0.354 0.72,0.682 1.115,0.982 l 0.025,0.018 c 0.77,0.595 1.313,1.452 1.496,2.435 l 0.004,0.025 c 0,0.15 0.13,1.42 0.13,1.42 h 2.74 l 0.07,-0.93 c 0.077,-1.092 0.56,-2.058 1.298,-2.758 L 12.001,11 l 0.5,-0.4 c 1.05,-0.665 1.814,-1.7 2.113,-2.917 L 14.621,7.65 c 0,-0.27 0,-1.13 0,-1.13 C 14.448,5.388 14.046,4.375 13.463,3.492 l 0.018,0.028 -0.79,-0.11 c 0.035,0.504 0.055,1.092 0.055,1.685 0,0.593 -0.02,1.181 -0.06,1.764 L 12.69,6.78 C 11.778,7.434 10.64,7.825 9.41,7.825 9.326,7.825 9.242,7.823 9.158,7.82 H 9.17 c -0.021,0 -0.045,0 -0.069,0 C 8.829,7.82 8.562,7.802 8.3,7.766 L 8.331,7.769 C 7.324,7.649 6.433,7.222 5.737,6.586 l 0.004,0.003 c 0,-0.12 0.1,-3.22 0.1,-3.22 z m 17,2.79 0.1,0.22 c 0.215,0.406 0.564,0.716 0.987,0.876 L 23.1,7.43 c 0.334,0.136 0.722,0.217 1.129,0.22 H 24.23 C 24.651,7.648 25.05,7.553 25.407,7.383 L 25.39,7.39 C 25.823,7.161 26.197,6.909 26.54,6.622 L 26.53,6.63 24.21,3.41 Z"
         id="path13" />
    </symbol>
    <symbol
       id="icon-programming"
       viewBox="0 0 32 32">
      <path
         d="m 22.2,22.7 c 1.2,0.1 1.4,-1.6 0.4,-2 -1.5,-0.5 -2,2 -0.4,2 z m 2,-2 c 1.2,0.1 1.4,-1.6 0.4,-2 -1.6,-0.5 -2,2 -0.4,2 z M 18.8,8.9 c -0.3,0.3 -0.8,0.5 -0.9,1 0,0.2 0.1,0.3 0.3,0.4 0.2,0 0.3,0 0.5,-0.1 0.5,-0.4 1,-0.8 1.5,-1.1 0.3,-0.2 0.5,-0.4 0.6,-0.7 0,-0.2 0,-0.3 -0.2,-0.4 C 20,7.5 19.4,7.1 18.9,6.7 18.6,6.5 18.3,6.3 18,6.6 c -0.1,0.2 -0.1,0.3 -0.1,0.5 0.4,0.5 0.4,0.5 1,0.8 0.2,0.1 0.4,0.3 0.6,0.4 v 0.1 c -0.3,0.2 -0.4,0.3 -0.7,0.5 z m 7.4,13.8 c 1.2,0.1 1.4,-1.6 0.4,-2 -1.6,-0.5 -2,2 -0.4,2 z m -1.6,0 c -1.5,-0.5 -2,2 -0.4,2 1.2,0.1 1.4,-1.6 0.4,-2 z m -15.4,-2 c 0,-0.6 0.2,-1.8 -0.6,-2 -1.4,-0.3 -1.5,1 -1.4,2 -0.9,-0.1 -2,-0.2 -2,1 -0.1,1.1 1.2,1.1 2,1 -0.1,0.9 -0.2,2 1,2 1.1,0.1 1.1,-1.2 1,-2 0.9,0.1 2,0.2 2,-1 0.1,-1.2 -1.2,-1.1 -2,-1 z m 15,-13.4 c -0.6,-0.7 -1.5,-0.9 -2,-1 H 21.9 L 22.2,5.8 C 22.7,5.1 23.4,4.1 22.1,3 21.8,2.5 21.4,2.2 20.8,2.2 20.3,2.2 19.7,2.5 19.1,2.9 L 18.8,3.1 18.6,2.6 c -0.2,-1 -0.9,-2.1 -2.2,-2.1 -0.1,0 -0.4,0 -0.6,0.1 -1.2,0.1 -1.5,1.2 -1.6,2.1 V 3 L 13.8,2.7 C 13.4,2.5 12.9,2.1 12.3,2.1 c -0.5,0 -0.9,0.2 -1.4,0.7 -0.5,0.3 -0.7,0.7 -0.8,1.1 -0.1,0.6 0.2,1.3 0.7,2 L 11,6.1 10.7,6.2 C 10,6.4 8.9,6.6 8.7,7.6 v 0.1 c -0.2,2.4 0.7,2.8 2.1,3 l 0.3,0.1 -0.3,0.4 c -0.5,0.7 -1.2,1.6 0.1,2.8 0.3,0.5 0.7,0.8 1.3,0.8 0.5,0 1.1,-0.3 1.7,-0.7 l 0.2,-0.2 v 0.4 c 0.1,0.6 0.4,2.1 1.8,2.1 h 0.7 c 1.3,0 2,-1.1 2,-2.1 V 14 l 0.4,0.3 c 0.4,0.2 0.9,0.6 1.5,0.6 0.5,0 0.9,-0.2 1.4,-0.7 0.5,-0.3 0.7,-0.7 0.8,-1.1 0.1,-0.6 -0.1,-1.3 -0.6,-2 l -0.2,-0.3 h 0.3 c 0.8,-0.1 1.4,-0.4 1.8,-1 0.4,-0.7 0.5,-1.7 0.2,-2.5 z m -1.4,0.8 c 0,0.2 0,0.5 -0.2,0.7 -0.1,0.1 -0.1,0.1 -0.6,0.3 -0.6,0.2 -1.1,0.7 -1.3,1.3 -0.2,0.6 -0.1,1.3 0.2,1.8 0.1,0.1 0.1,0.2 0.2,0.3 l 0.1,0.1 -0.1,0.1 C 21,12.7 20.7,13 20.7,13 L 20.5,13.1 20.3,13 c -0.3,-0.3 -0.8,-0.4 -1.2,-0.4 -0.9,0 -1.7,0.5 -2,1.4 -0.1,0.2 -0.2,0.4 -0.2,0.5 l -0.1,0.1 h -1.1 l -0.1,-0.3 c -0.2,-1.1 -1.1,-1.8 -2.1,-1.8 -0.4,0 -0.8,0.1 -1.1,0.3 L 12.2,12.9 12.1,13 12,12.9 c 0,-0.1 -0.3,-0.4 -0.3,-0.4 l -0.1,-0.1 0.1,-0.1 c 0.1,-0.2 0.2,-0.3 0.3,-0.4 0.5,-0.7 1,-1.4 0.4,-2.5 L 12.2,9.1 C 11.7,9 10.8,8.8 10.4,8.8 h -0.1 v -1 h 0.1 c 0.3,-0.1 0.7,-0.2 1,-0.2 0.3,0 0.5,0 0.8,-0.1 L 12.4,7.2 C 13,6.2 12.5,5.5 12.1,4.8 12,4.6 11.9,4.5 11.8,4.3 V 4.2 l 0.1,-0.1 c 0.1,0 0.4,-0.3 0.4,-0.3 l 0.1,-0.1 0.1,0.1 c 0.4,0.3 0.8,0.4 1.3,0.4 1,0 1.9,-0.7 2.1,-1.7 V 2.3 H 16 c 0.2,-0.1 0.4,-0.1 0.5,-0.1 h 0.2 c 0.2,0 0.3,0.2 0.4,0.6 0.3,0.8 1.1,1.4 2,1.4 0.4,0 0.8,-0.1 1.1,-0.3 0.1,0 0.2,-0.1 0.3,-0.1 l 0.1,-0.1 0.1,0.1 c 0,0.1 0.3,0.4 0.3,0.4 L 21.1,4.4 21,4.5 c -0.3,0.6 -0.4,1.3 -0.2,1.9 0.3,0.6 0.8,1.1 1.5,1.4 L 22.8,8 Z m -7.4,2.2 C 15.6,10.2 15.6,10.1 15.7,9.9 15.6,9.5 15.1,9.2 14.8,8.9 14.5,8.7 14.4,8.6 14.1,8.4 14.2,8.2 14.4,8 14.6,7.9 c 0.6,-0.3 0.6,-0.3 1,-0.8 0,-0.2 0,-0.3 -0.1,-0.5 C 15.2,6.3 14.9,6.5 14.6,6.7 14,7.1 13.5,7.5 12.9,8 c -0.2,0.1 -0.2,0.2 -0.2,0.4 0,0.3 0.3,0.5 0.6,0.7 0.5,0.4 1,0.8 1.5,1.1 0.2,0.1 0.3,0.1 0.6,0.1 z m 9.8,21.1 c -2.7,0 -3.6,-1.8 -4.3,-3.1 -0.7,-1.3 -1.1,-1.9 -2.2,-1.9 -5.4,-0.2 -5.6,0.1 -5.9,0.9 -0.3,0.8 -0.8,2 -3,3.6 L 9.6,31 C 6.3,32 3.6,30.6 2.4,27.3 0.8,23 2.1,16.6 6,15 H 6.3 C 6.8,14.9 8,14.6 9.4,14.7 h 0.7 c 1,0 1.6,0.1 2.8,0.9 0.2,0.2 0.3,0.3 0.5,0.4 0.3,0.3 0.6,0.6 1.2,0.7 h 0.3 c 3.2,0.3 4,0 4.2,-0.4 l 0.1,-0.1 0.1,-0.1 C 19.4,16 21.1,14.7 23,14.7 h 0.9 c 0.4,0 0.7,0.1 1.1,0.1 1.3,0.1 2.4,0.6 3.3,1.4 l 1,1 0.2,0.1 0.1,0.2 c 1.9,2.9 2.1,7.6 0.5,10.6 -1,2 -2.8,3.1 -4.9,3.2 0.1,0.1 0,0.1 0,0.1 z m -6.4,-6.5 c 1.9,0 2.7,1.5 3.3,2.7 0.7,1.3 1.3,2.4 3.1,2.3 1.6,-0.1 2.9,-0.8 3.7,-2.3 1.4,-2.7 0.9,-6.8 -0.4,-9 -0.2,-0.2 -0.6,-0.5 -1.2,-1.1 -0.7,-0.6 -1.4,-0.9 -2.4,-1 -0.3,0 -0.8,0 -1.1,-0.1 H 23 c -1.1,0 -2.3,0.7 -2.7,1 -0.9,1.2 -3.3,1.1 -5.5,0.9 H 14.4 C 13.3,18.1 12.7,17.5 12.3,17.1 L 12,16.8 C 11.1,16.2 10.9,16.2 10,16.2 H 9.2 C 8,16.1 6.9,16.4 6.5,16.5 H 6.4 c -3,1.3 -4,6.8 -2.8,10.3 0.6,1.8 2.1,3.7 5.2,2.8 1.8,-1.3 2.1,-2.2 2.4,-2.8 0.7,-1.7 1.4,-2.1 7.3,-1.8 0.2,-0.1 0.3,-0.1 0.3,-0.1 z"
         id="path14" />
    </symbol>
    <symbol
       id="icon-godot"
       viewBox="0 0 32 32">
      <path
         d="M 13.1,2.4 C 11.8,2.7 10.5,3.1 9.2,3.7 9.2,4.8 9.3,5.8 9.4,6.9 8.9,7.2 8.4,7.5 8,7.8 7.5,8.2 7.1,8.5 6.7,8.9 5.8,8.4 5,7.9 4.1,7.4 c -1,1 -1.9,2.2 -2.6,3.4 0.6,0.9 1.2,1.8 1.8,2.5 V 21 21 L 8,21.5 c 0.2,0 0.4,0.2 0.5,0.5 l 0.1,2 4.1,0.3 0.3,-1.9 C 13,22.2 13.3,22 13.5,22 h 5 c 0.3,0 0.5,0.2 0.5,0.4 l 0.3,1.9 4.1,-0.3 0.1,-2.1 c 0,-0.2 0.2,-0.4 0.5,-0.5 l 4.7,-0.5 v 0 -0.6 0 -7.1 c 0.6,-0.8 1.2,-1.7 1.8,-2.5 C 29.8,9.4 28.9,8.3 27.9,7.3 27,7.7 26.2,8.2 25.3,8.8 24.9,8.4 24.4,8.1 24,7.7 23.6,7.3 23.1,7.1 22.6,6.8 22.7,5.7 22.8,4.7 22.8,3.6 21.6,3 20.3,2.6 18.9,2.3 18.4,3.2 17.9,4.1 17.5,5.1 17,5 16.5,5 16,5 V 5 5 5 5 C 15.5,5 15,5 14.5,5.1 14.1,4.2 13.6,3.3 13.1,2.4 Z M 9.3,13.6 c 1.6,0 2.8,1.3 2.8,2.8 0,1.5 -1.3,2.8 -2.8,2.8 -1.6,0 -2.8,-1.3 -2.8,-2.8 0,-1.5 1.3,-2.8 2.8,-2.8 z m 13.4,0 c 1.6,0 2.8,1.3 2.8,2.8 0,1.6 -1.3,2.8 -2.8,2.8 -1.6,0 -2.8,-1.3 -2.8,-2.8 v 0 c -0.1,-1.5 1.2,-2.8 2.8,-2.8 z M 16,15.3 c 0.5,0 0.9,0.4 0.9,0.8 v 2.6 c 0,0.5 -0.4,0.8 -0.9,0.8 -0.5,0 -0.9,-0.4 -0.9,-0.8 v -2.6 c 0,-0.4 0.4,-0.8 0.9,-0.8 z m 8.5,7.2 -0.1,2.1 c 0,0.3 -0.2,0.5 -0.5,0.5 l -5,0.4 v 0 c -0.3,0 -0.5,-0.2 -0.5,-0.4 L 18,23 h -4 l -0.3,2 c 0,0.3 -0.3,0.5 -0.5,0.4 L 8.2,25 C 7.9,25 7.7,24.8 7.7,24.5 L 7.6,22.4 3.4,22 c 0,0.5 0,1 0,1.1 0,4.5 5.7,6.6 12.7,6.6 v 0 c 7,0 12.7,-2.2 12.7,-6.6 0,-0.1 0,-0.6 0,-1.1 z m -13,-5.9 c 0,1 -0.8,1.9 -1.9,1.9 -1,0 -1.9,-0.8 -1.9,-1.9 0,0 0,0 0,0 0,-1 0.8,-1.9 1.9,-1.9 1,0.1 1.9,0.9 1.9,1.9 z m 9,0 c 0,1 0.8,1.9 1.8,1.9 1,0 1.9,-0.8 1.9,-1.8 0,0 0,-0.1 0,-0.1 0,-1 -0.9,-1.9 -1.9,-1.8 -0.9,0 -1.8,0.8 -1.8,1.8 z"
         id="path15" />
    </symbol>
    <symbol
       id="icon-python"
       viewBox="0 0 32 32">
      <path
         d="m 23.488,9.14 v 2.966 a 4.284,4.284 0 0 1 -4.167,4.235 h -6.678 a 3.409,3.409 0 0 0 -3.34,3.394 v 6.361 c 0,1.81 1.574,2.875 3.34,3.395 0.997,0.323 2.145,0.509 3.336,0.509 1.191,0 2.339,-0.186 3.415,-0.531 l -0.079,0.022 c 1.682,-0.487 3.34,-1.467 3.34,-3.395 V 23.549 H 15.983 V 22.7 h 10.012 c 1.941,0 2.665,-1.354 3.34,-3.387 0.326,-1.015 0.514,-2.183 0.514,-3.394 0,-1.211 -0.188,-2.379 -0.536,-3.476 l 0.022,0.081 c -0.48,-1.933 -1.396,-3.387 -3.34,-3.387 z m -3.752,16.108 h 0.02 a 1.273,1.273 0 1 1 -1.273,1.273 v -0.012 c 0,-0.694 0.56,-1.257 1.253,-1.261 z M 15.835,2 C 14.706,2.001 13.602,2.1 12.528,2.289 L 12.643,2.272 C 9.816,2.771 9.303,3.817 9.303,5.744 V 8.29 h 6.68 V 9.139 H 6.796 L 6.72,9.138 a 4.172,4.172 0 0 0 -4.092,3.361 l -0.004,0.026 c -0.299,1.017 -0.47,2.186 -0.47,3.394 0,1.208 0.172,2.377 0.492,3.483 L 2.624,19.314 c 0.475,1.978 1.609,3.387 3.55,3.387 h 2.297 v -3.052 a 4.245,4.245 0 0 1 4.169,-4.15 h 6.676 a 3.365,3.365 0 0 0 3.34,-3.365 V 12.103 12.105 5.744 A 3.732,3.732 0 0 0 19.332,2.273 L 19.316,2.272 A 20.217,20.217 0 0 0 15.954,1.999 h -0.124 0.006 z m -3.612,2.048 h 0.02 A 1.273,1.273 0 1 1 10.97,5.325 V 5.316 c 0,-0.695 0.559,-1.259 1.253,-1.267 h 10e-4 z"
         id="path16" />
    </symbol>
    <symbol
       id="icon-unity"
       viewBox="0 0 32 32">
      <path
         d="M 29.6,22.4 V 7.5 L 16.7,0 v 5.7 l 5.1,2.9 C 22,8.7 22,9 21.8,9.1 l -6,3.5 c -0.2,0.1 -0.4,0.1 -0.5,0 L 9.3,9.1 C 9,9.1 9,8.7 9.2,8.7 L 14.3,5.8 V 0 l -13,7.5 v 14.9 l 4.9,-2.9 v -5.9 c 0,-0.2 0.3,-0.3 0.4,-0.3 l 6,3.5 c 0.2,0.1 0.3,0.3 0.3,0.5 v 6.9 c 0,0.2 -0.3,0.3 -0.4,0.3 L 7.4,21.6 2.5,24.5 15.4,32 28.3,24.5 23.4,21.6 18.3,24.5 c -0.2,0.1 -0.4,0 -0.4,-0.3 v -6.9 c 0,-0.2 0.1,-0.4 0.3,-0.5 l 6,-3.5 c 0.2,-0.1 0.4,0 0.4,0.3 v 5.9 z"
         id="path17" />
    </symbol>
    <symbol
       id="icon-curriculum">
      <path
         d="M 0.084,21.627 0,0.552 V 0.437 C 0,0.436 0,0.435 0,0.434 0,0.196 0.193,0.003 0.431,0.003 c 0,0 0.001,0 0.001,0 L 21.73,-0.001 c 0,0 0,0 0,0 0.306,0 0.553,0.248 0.554,0.553 v 31.016 c 0,0 0,0 0,0 0,0.238 -0.193,0.431 -0.431,0.431 0,0 -0.001,0 -0.001,0 H 0.435 C 0.195,31.999 0,31.804 0,31.564 v 0 0 L 0.084,21.626 Z M 19.422,18.282 V 16.087 H 3.334 c 0,0 -10e-4,0 -10e-4,0 -0.238,0 -0.431,0.193 -0.431,0.431 0,0 0,10e-4 0,10e-4 v 0 1.722 c 0,0.238 0.193,0.431 0.432,0.431 v 0 q 7.929,0 15.807,0.007 c 0.258,0 0.317,-0.095 0.284,-0.397 z M 12.88,20.613 H 3.33 c -0.238,0 -0.431,0.193 -0.431,0.431 v 0 1.731 c 0,0.238 0.193,0.431 0.431,0.431 v 0 H 19.4 v -2.593 z m 3.546,4.476 H 3.329 c -0.238,0 -0.431,0.193 -0.431,0.431 v 0 1.731 c 0,0.238 0.193,0.431 0.431,0.431 v 0 h 16.07 V 25.088 H 16.426 Z M 20.103,4.79 C 20.161,4.673 20.219,4.554 20.289,4.413 H 17.533 C 17.026,5.603 16.532,6.782 16.017,7.999 15.445,9.413 15.71,9.176 15.218,7.991 14.747,6.809 14.298,5.683 13.842,4.56 13.799,4.48 13.722,4.423 13.631,4.409 H 13.629 C 12.693,4.399 11.759,4.402 10.823,4.402 v 0 c -0.005,0.09 -0.022,0.138 -0.008,0.169 0.484,1.146 0.973,2.29 1.457,3.437 q 0.877,2.076 1.745,4.152 c 0.129,0.31 1.458,0.459 1.532,0.459 0.074,0 1.293,-0.02 1.569,-0.698 0.964,-2.364 1.98,-4.712 2.985,-7.132 z m -9.21,6.328 v 0 c 0.006,-0.052 0.036,-0.131 0.014,-0.152 C 10.351,10.448 9.791,9.937 9.197,9.394 v 0 C 9.044,9.563 8.944,9.698 8.818,9.811 7.889,10.655 6.562,10.544 5.925,9.524 5.739,9.219 5.629,8.85 5.629,8.455 5.629,8.297 5.647,8.144 5.68,7.996 L 5.677,8.01 C 5.802,7.352 6.125,6.79 6.859,6.591 7.674,6.368 8.379,6.545 8.958,7.156 9.162,7.37 9.296,7.414 9.533,7.176 9.987,6.718 10.485,6.303 11.015,5.825 v 0 C 10.752,5.572 10.519,5.291 10.23,5.087 9.001,4.221 7.612,4.044 6.183,4.336 5.092,4.55 4.173,5.166 3.568,6.02 L 3.559,6.033 C 2.981,6.84 2.845,7.728 2.872,8.68 c 0.042,1.552 0.803,2.657 2.116,3.4 0.835,0.472 1.75,0.572 2.711,0.526 1.262,-0.062 2.32,-0.49 3.195,-1.488 z"
         id="path2" />
    </symbol>
  </defs>
  <use
     xlink:href="#icon-curriculum"
     id="use2"
     transform="translate(4.8477119,0.001)" />
</svg>
